<?xml version="1.0" standalone="no"?>
<!DOCTYPE svg PUBLIC "-//W3C//DTD SVG 20010904//EN"
 "http://www.w3.org/TR/2001/REC-SVG-20010904/DTD/svg10.dtd">
<svg version="1.0" xmlns="http://www.w3.org/2000/svg"
 width="26.000000pt" height="26.000000pt" viewBox="0 0 225.000000 225.000000"
 preserveAspectRatio="xMidYMid meet">

<g transform="translate(0.000000,225.000000) scale(0.100000,-0.100000)"
fill="#000000" stroke="none">
<path d="M21 2161 c-26 -26 -27 -55 -1 -81 18 -18 33  -20 185 -20 160 0 165
-1 179 -22 14 -22 57 -229 201 -973 44 -224 73 -351 86 -371 11 -18 36 -40 57
-50 35 -18 73 -19 652 -19 570 0 617 1 647 18 18 9 40 29 49 43 10 14 50 191
96 422 93 473 93 492 5 533 -40 18 -78 19 -814 19 -726 0 -772 1 -777 18 -3 9
-22 102 -42 205 -39 197 -52 230 -107 271 -26 19 -44 21 -212 24 -174 3 -185
2 -204 -17z m819 -625 c0 -6 48 -241 55 -269 l7 -27 -114 0 -114 0 -27 138
c-15 75 -27 143 -27 150 0 9 29 12 110 12 61 0 110 -2 110 -4z m490 -146 l0
-150 -155 0 c-85 0 -155 2 -155 4 0 4 -48 245 -55 274 l-5 22 185 0 185 0 0
-150z m490 138 c0 -6 -12 -74 -27 -150 l-27 -138 -158 0 -158 0 0 150 0 150
185 0 c137 0 185 -3 185 -12z m310 -5 c0 -10 -12 -78 -26 -150 l-27 -133 -93
0 c-73 0 -94 3 -94 14 0 15 48 255 55 274 3 8 32 12 95 12 79 0 90 -2 90 -17z
m-1173 -563 c17 -85 34 -170 38 -187 l6 -33 -99 0 c-138 0 -133 -5 -171 201
-17 91 -31 169 -31 173 0 3 51 5 113 4 l112 -3 32 -155z m373 -30 l0 -190
-105 0 c-58 0 -105 1 -105 3 0 2 -16 82 -35 177 -19 95 -35 179 -35 187 0 10
30 13 140 13 l140 0 0 -190z m404 182 c2 -4 -12 -88 -32 -187 l-37 -180 -105
0 -105 0 -3 175 c-1 96 0 180 2 187 4 10 40 13 140 13 74 0 137 -3 140 -8z
m316 0 c0 -5 -15 -84 -34 -177 -25 -123 -39 -172 -52 -182 -25 -18 -174 -18
-174 0 0 24 61 322 70 345 9 20 16 22 100 22 49 0 90 -4 90 -8z"/>
<path d="M736 528 c-23 -32 -20 -54 10 -77 26 -21 35 -21 648 -21 685 0 666
-2 666 60 0 63 32 60 -670 60 l-639 0 -15 -22z"/>
<path d="M954 360 c-112 -57 -110 -216 4 -271 104 -51 217 20 217 136 0 117
-117 188 -221 135z m90 -106 c35 -13 7 -69 -31 -62 -19 3 -28 30 -19 54 6 15
24 18 50 8z"/>
<path d="M1690 362 c-53 -29 -80 -75 -80 -137 0 -95 70 -160 163 -152 143 12
192 193 75 280 -38 29 -114 33 -158 9z m101 -118 c9 -11 10 -20 2 -32 -15 -24
-44 -27 -59 -7 -28 38 27 75 57 39z"/>
</g>
</svg>
